<?xml version="1.0" encoding="UTF-8" standalone="yes"?>
<svg version="1.2" preserveAspectRatio="xMidYMid meet" viewBox="0 0 42 42" baseProfile="tiny-ps" xmlns="http://www.w3.org/2000/svg">
  <title>bimi-svg-tiny-12-ps</title>
  <g transform="translate(0.000000,44.000000) scale(0.100000,-0.100000)" fill="#000000" stroke="none">
    <path d="M0 219 l0 -219 215 0 215 0 0 220 0 220 -139 0 c-133 0 -139 -1 -165 -25 -34 -32 -48 -32 -40 0 6 23 4 24 -40 23 l-46 -1 0 -218z m271 161 c10 -6 26 -25 35 -43 10 -18 31 -49 47 -70 22 -26 28 -40 20 -48 -7 -7 -17 -1 -34 23 -13 18 -29 39 -36 46 -7 7 -13 19 -13 25 0 7 -4 6 -10 -3 -9 -12 -15 -9 -40 20 -35 41 -36 47 -12 53 9 3 18 5 20 6 2 0 12 -4 23 -9z m-109 -128 c-5 -37 18 -58 47 -42 12 6 21 20 21 30 0 11 4 20 9 20 23 0 41 -14 41 -31 0 -19 -50 -39 -99 -39 -52 0 -82 62 -38 80 12 5 22 9 23 9 0 1 -1 -12 -4 -27z"/>
    <path d="M250 363 c0 -6 8 -17 18 -24 16 -13 16 -13 2 6 -8 11 -16 22 -17 24 -2 2 -3 0 -3 -6z"/>
  </g>
</svg>